<svg width="169" height="100" viewBox="0 0 169 100" fill="none" xmlns="http://www.w3.org/2000/svg">
<g clip-path="url(#clip0_1_413)">
<path d="M63.1459 44.6988C65.304 45.5444 73.6637 48.8357 74.6777 49.239V60.869L84.6755 64.7977V46.1038L98.6516 40.601V46.9884L114.279 53.1417V33.1599L99.6787 27.3969L84.6885 33.303V24.9642L115.93 12.6707L83.7134 0L53.0961 12.0593V52.3741L63.1459 56.3289V44.6988ZM112.225 50.2407C110.066 49.3951 101.707 46.1038 100.693 45.7005V39.8075L112.225 35.2673V50.2407ZM84.6885 35.1242C90.747 32.7436 99.5877 29.2572 99.6657 29.2312C100.03 29.3743 109.377 33.0558 110.574 33.5241C109.325 34.0185 88.9138 42.045 84.6755 43.7232V35.1242H84.6885ZM83.7134 2.09445C84.4155 2.36763 106.764 11.1747 110.587 12.6707C106.777 14.1798 84.4155 22.9739 83.7134 23.247C82.9984 22.9608 60.6627 14.1668 56.8404 12.6707C60.6627 11.1617 83.0114 2.36763 83.7134 2.09445ZM61.1047 53.4279C59.3626 52.7384 56.0083 51.4245 55.1502 51.0732V14.1147C57.6594 15.1034 81.4903 24.4829 82.6344 24.9252V61.8967C80.9052 61.2202 77.59 59.9063 76.7319 59.5681V47.9381L61.1047 41.7848V53.4149V53.4279Z" fill="white"/>
<path d="M62.1188 34.5262L64.927 35.632V30.4674V30.4544L62.1188 29.3486V34.5262Z" fill="white"/>
<path d="M72.8966 38.7664L75.7048 39.8722V34.7076L72.8966 33.5889V38.7664Z" fill="white"/>
<path d="M8.29464 90.5818C7.42357 89.8793 6.61751 89.0728 5.92846 88.1881C6.70852 87.1604 7.34556 86.0417 7.8266 84.8448V82.8545H5.40842V79.251H3.17224V82.8545H0.442034V84.8448H5.51242C4.26433 87.3946 2.36618 89.5671 0 91.1282L0.884068 93.4958C1.71613 92.9494 2.49619 92.312 3.18524 91.5965V99.9873H5.42142V90.4647H5.46042C6.01946 91.3623 6.64351 92.2339 7.34556 93.0405L8.25563 91.5054H8.29464V100H10.3748V99.1027H18.4614V100H20.5416V89.359H8.29464V90.5948V90.5818ZM15.3672 91.0761H18.4614V93.3787H15.3672V91.0761ZM15.3672 94.9918H18.4614V97.3465H15.3672V94.9918ZM10.3878 91.0631H13.482V93.3657H10.3878V91.0631ZM10.3748 94.9918H13.469V97.3465H10.3748V94.9918Z" fill="white"/>
<path d="M21.1656 79.8877H7.7226V81.722H21.1656V79.8877Z" fill="white"/>
<path d="M9.1137 82.9062V88.2009H19.7095V82.9062H9.1137ZM17.6294 86.5358H11.1939V84.5714H17.6294V86.5358Z" fill="white"/>
<path d="M25.378 87.9149H39.536V80.5908H32.0865C32.3075 80.1355 32.4895 79.6542 32.6455 79.1729H30.1103C29.9933 79.6672 29.8373 80.1355 29.6163 80.5908H23.1418V93.6909H27.1851V96.5919H23.8048V94.3933H21.6077V99.4799H23.8048V98.4391H34.9077V94.3803H32.7365V96.5789H29.3303V93.6779H38.925C38.925 94.7316 38.821 95.7983 38.639 96.839C38.509 97.6976 38.0409 97.7757 37.4039 97.7757H35.1937L35.5967 99.9482H38.2749C39.367 100.026 40.3551 99.2717 40.5761 98.205C41.1482 96.5919 41.2522 93.6909 41.3302 91.9477H25.404V90.7118H41.9932V89.0076H25.404V87.9149H25.378ZM25.378 82.308H37.2349V83.5178H25.378V82.308ZM25.378 84.9879H37.2349V86.2888H25.378V84.9879Z" fill="white"/>
<path d="M46.5176 90.0354C45.8415 92.5851 44.6324 94.9528 42.9813 97.0082L45.1005 98.7124C48.5717 94.1332 50.0539 88.1101 50.4959 81.3454L47.9997 80.9941C47.8437 84.0643 47.3366 87.0954 46.5176 90.0484V90.0354Z" fill="white"/>
<path d="M55.6573 81.2276C55.9043 86.119 57.2954 93.6382 61.1177 98.6466L63.3149 96.9424C61.8068 94.9781 58.9205 90.9973 58.2445 80.9414L55.6573 81.2276Z" fill="white"/>
<path d="M74.3267 79.8877H71.8435V83.257H64.693V90.8282H67.0852V85.5206H79.0331V85.6767C79.0331 93.7032 74.0797 96.0969 66.8511 96.6563L67.6052 99.0759C74.4567 98.3474 81.3603 96.0448 81.6073 85.2864L81.6463 83.27H74.3267V79.9007V79.8877Z" fill="white"/>
<path d="M99.0806 83.3486L100.979 82.9063C100.719 81.6965 100.342 80.5256 99.8477 79.3809L98.0275 79.7841C98.4826 80.9419 98.8336 82.1388 99.0676 83.3486H99.0806Z" fill="white"/>
<path d="M85.6896 96.1368L86.3136 98.7907C96.3374 97.6589 100.069 93.548 103.072 85.1572L100.68 84.1035C97.7935 92.9366 94.0232 95.4604 85.6766 96.1368H85.6896Z" fill="white"/>
<path d="M91.6701 88.1753C89.6679 87.1996 87.5877 86.406 85.4556 85.8076L84.4415 88.1102C86.5997 88.7737 88.6798 89.6323 90.656 90.686L91.6701 88.1883V88.1753Z" fill="white"/>
<path d="M101.161 79.498C101.655 80.5908 102.032 81.7225 102.305 82.8803L104.138 82.373C103.826 81.2542 103.423 80.1615 102.942 79.0947L101.148 79.498H101.161Z" fill="white"/>
<path d="M92.3591 85.5344L93.4902 83.1147C91.475 82.1781 89.3949 81.3976 87.2497 80.7861L86.1836 83.1147C88.3158 83.7262 90.3829 84.5327 92.3591 85.5344Z" fill="white"/>
<path d="M105.217 95.9151L106.036 98.699C115.709 97.4761 120.532 93.5214 123.861 83.8427L121.364 82.7109C118.114 92.7018 112.914 95.3557 105.217 95.902V95.9151Z" fill="white"/>
<path d="M113.031 84.3895C110.925 83.0235 108.597 82.0088 106.179 81.3584L104.983 83.5309C107.362 84.2724 109.611 85.3652 111.666 86.7831L113.031 84.3895Z" fill="white"/>
<path d="M141.88 82.2815C141.581 81.1628 141.165 80.07 140.671 79.0293L138.929 79.4326C139.397 80.4733 139.774 81.566 140.034 82.6848L141.893 82.2815H141.88Z" fill="white"/>
<path d="M142.14 79.3935C142.608 80.4082 142.998 81.4619 143.284 82.5287L145.143 82.1124C144.805 81.0456 144.389 80.0049 143.908 78.9902L142.14 79.3935Z" fill="white"/>
<path d="M134.729 80.3954L132.038 79.9531C131.037 83.5696 128.58 86.6137 125.252 88.3439L126.864 90.1912C128.918 89.0464 130.699 87.4593 132.064 85.547H139.956C137.85 93.0271 133.611 95.8631 126.422 96.8778L127.514 99.1804C131.258 98.5299 141.139 96.8128 143.024 83.2184H133.52C134.014 82.3078 134.417 81.3581 134.755 80.3824L134.729 80.3954Z" fill="white"/>
<path d="M152.242 83.283C152.541 82.8537 152.788 82.3854 152.97 81.891H154.179V83.4391H151.449V84.5319H153.867C153.152 85.7547 152.151 86.7954 150.955 87.5629L151.67 88.5646C152.671 87.8361 153.516 86.8995 154.14 85.8197H154.166V89.4753H155.258V85.7807H155.284C155.791 86.8735 156.519 87.8491 157.429 88.6297L158.001 87.4198C157 86.6523 156.181 85.6506 155.622 84.5188H157.819V83.4261H155.271V81.878H157.598V80.7983H155.271V79.1201H154.179V80.7983H153.334C153.477 80.3039 153.568 79.9657 153.633 79.6535L152.489 79.4844C152.307 80.447 151.969 81.3707 151.488 82.2163H151.462C151.332 82.3984 151.28 82.4764 151.15 82.6325L152.255 83.283H152.242Z" fill="white"/>
<path d="M147.73 87.147C148.302 86.3014 148.731 85.3518 149.017 84.3631H149.043V89.4756H150.084V84.7534H150.11C150.318 85.1957 150.578 85.6119 150.903 85.9892L151.592 85.0005C151.02 84.4411 150.5 83.8167 150.084 83.1272V82.2296H151.436V81.1369H150.084V79.1465H149.03V81.1369H147.444V82.2296H148.874C148.549 83.5045 147.99 84.7013 147.21 85.7681L147.717 87.16L147.73 87.147Z" fill="white"/>
<path d="M159.067 87.9281C158.898 87.9281 158.781 87.9542 158.508 87.9802L158.703 89.112C160.029 88.9428 162.577 88.5526 164.372 88.1753V87.1346C163.943 87.2257 163.267 87.3558 161.992 87.5379V84.4678H164.034V83.375H158.703V84.4678H160.861V87.681C160.575 87.72 159.34 87.8761 159.067 87.9281Z" fill="white"/>
<path d="M165.49 87.7196C165.763 88.227 166.478 89.5019 167.557 89.5019C168.558 89.5019 168.857 87.8757 169.013 87.0172L167.986 86.4448C167.947 86.835 167.752 88.1099 167.362 88.1099C166.972 88.1099 166.491 87.1212 166.361 86.809C165.841 85.2609 165.542 83.6478 165.503 82.0087H168.818V80.9029H167.648L168.272 80.1094C167.713 79.7061 167.115 79.3549 166.491 79.0557L165.828 79.9143C166.4 80.1874 166.959 80.5127 167.479 80.8899V80.9159H165.477C165.477 80.1224 165.477 79.7191 165.477 79.1467H164.294C164.307 79.3289 164.333 80.3305 164.359 80.9159H158.534V82.0217H164.411C164.489 83.843 164.554 85.8724 165.516 87.7457L165.49 87.7196Z" fill="white"/>
<path d="M147.639 95.902H150.487C150.201 96.7866 149.85 97.6452 149.42 98.4648C148.887 98.4778 148.055 98.4908 147.821 98.4908L147.977 99.6356C149.655 99.6356 150.032 99.5966 155.83 99.2193C156.116 99.6746 156.142 99.7136 156.285 99.9738L157.351 99.3104H157.364C156.649 98.1396 155.791 97.0728 154.816 96.1232L153.88 96.6956C154.348 97.1899 154.79 97.7233 155.18 98.2696C153.477 98.3607 152.944 98.3867 150.669 98.4388C151.007 97.8143 151.306 97.1249 151.852 95.902H157.611V94.8223H147.639V95.902Z" fill="white"/>
<path d="M153.308 89.4365H152.047C150.812 91.0106 149.147 92.1944 147.262 92.8449L147.912 93.8986C148.549 93.6254 149.16 93.3132 149.733 92.9489V93.5474H155.596V92.9229C156.168 93.2872 156.766 93.6124 157.377 93.9116L158.092 92.8058C155.934 91.9603 154.127 90.7244 153.321 89.4365H153.308ZM154.959 92.4936H150.383V92.4676C151.228 91.8952 152.008 91.1797 152.658 90.3862C153.334 91.1797 154.114 91.8692 154.959 92.4676V92.4936Z" fill="white"/>
<path d="M163.033 95.5248C162.46 95.1345 161.94 94.6792 161.485 94.1588C161.927 93.5864 162.304 92.949 162.604 92.2855V91.2058H161.303V89.4756H160.172V91.2058H158.495V92.2855H161.342C160.705 93.6515 159.652 94.7832 158.326 95.5117L158.82 96.6435C159.301 96.3443 159.756 96.0061 160.159 95.6158V99.8958H161.303V95.4077C161.667 95.824 162.07 96.2272 162.499 96.5655L163.033 95.5117V95.5248Z" fill="white"/>
<path d="M166.231 93.7946H168.597V92.6108H166.231V89.4756H165.074V92.6108H162.76V93.7946H165.074V98.3477H162.291V99.5315H168.857V98.3477H166.231V93.7946Z" fill="white"/>
</g>
<defs>
<clipPath id="clip0_1_413">
<rect width="169" height="100" fill="white"/>
</clipPath>
</defs>
</svg>
