<svg width="26" height="26" viewBox="0 0 26 26" fill="none" xmlns="http://www.w3.org/2000/svg">
<path d="M13 4.33325C17.7879 4.33325 21.6667 8.21357 21.6667 12.9999" stroke="#5D4F3A" stroke-linecap="round" stroke-linejoin="round"/>
<path d="M13 1.44434C19.3826 1.44434 24.5556 6.61865 24.5556 12.9999" stroke="#5D4F3A" stroke-linecap="round" stroke-linejoin="round"/>
<path d="M5.42285 0.505859C5.60862 0.469217 5.82052 0.595239 5.875 0.731445L8.49121 7.27539C8.51899 7.34484 8.53209 7.46818 8.49805 7.61816C8.46443 7.7662 8.39654 7.88959 8.32422 7.96191L6.42578 9.86035H6.4248C5.92594 10.361 5.7816 11.1027 6.05762 11.7158L6.06445 11.7324L6.07324 11.748C6.0909 11.7808 6.10534 11.8067 6.11914 11.833V11.834C6.12371 11.8431 6.12762 11.8514 6.13086 11.8574C6.13386 11.863 6.13701 11.8681 6.13867 11.8711C6.14046 11.8743 6.14114 11.8761 6.1416 11.877C6.14133 11.8764 6.14125 11.8753 6.14062 11.874L6.14844 11.8896C6.9587 13.3756 8.13198 14.94 9.59766 16.4043C11.0628 17.868 12.6264 19.0423 14.1123 19.8525C14.1289 19.8616 14.1348 19.8645 14.1377 19.8662L14.1465 19.8721L14.1562 19.877C14.1764 19.8879 14.1965 19.8982 14.2119 19.9062C14.2282 19.9147 14.2403 19.9214 14.252 19.9277L14.2686 19.9365L14.2852 19.9443C14.8983 20.2203 15.64 20.075 16.1406 19.5762L16.1416 19.5752L18.0371 17.6777H18.0381C18.1093 17.6062 18.2315 17.5376 18.3799 17.5039C18.5301 17.4699 18.6542 17.483 18.7236 17.5107L25.2695 20.127V20.126C25.4056 20.1807 25.5307 20.3926 25.4941 20.5781C25.494 20.5789 25.4935 20.5802 25.4932 20.582C25.4924 20.5859 25.491 20.5923 25.4893 20.6006C25.4858 20.6171 25.48 20.6421 25.4727 20.6748C25.4579 20.7406 25.4358 20.8374 25.4053 20.957C25.344 21.1971 25.2509 21.5281 25.126 21.8906C24.8688 22.637 24.5014 23.4371 24.041 23.8975C22.4184 25.5201 19.738 25.9125 16.5918 25.0674C13.4604 24.2262 9.97332 22.1783 6.89746 19.1025C3.82157 16.0267 1.77366 12.5395 0.932617 9.4082C0.0876098 6.26206 0.480205 3.58167 2.10352 1.95898L2.1123 1.94922C2.57393 1.49297 3.3686 1.12833 4.11035 0.873047C4.47258 0.748402 4.80302 0.655814 5.04297 0.594727C5.16249 0.564302 5.25933 0.542119 5.3252 0.527344C5.35812 0.519961 5.38383 0.514243 5.40039 0.510742C5.40862 0.509003 5.41513 0.507619 5.41895 0.506836C5.42062 0.506492 5.42216 0.506 5.42285 0.505859Z" fill="#5D4F3A" stroke="#5D4F3A"/>
</svg>
