<svg width="40" height="40" viewBox="0 0 40 40" fill="none" xmlns="http://www.w3.org/2000/svg">
<path d="M37.2411 5H2.75892C1.23694 5 0 6.23922 0 7.76224V31.2385C0 32.7616 1.23694 34.0008 2.75892 34.0008H37.2411C38.7623 34.0008 40 32.7616 40 31.2385V7.76224C40 6.23922 38.7631 5 37.2411 5ZM38.6202 31.2385C38.6202 32.0001 38.0009 32.6193 37.2411 32.6193H2.75892C1.99832 32.6193 1.37985 32.0001 1.37985 31.2385V7.76224C1.37985 7.00073 1.9991 6.38151 2.75892 6.38151H37.2411C38.0017 6.38151 38.6202 7.00073 38.6202 7.76224V31.2385Z" fill="#5D4F3A"/>
<path d="M35.3935 10.2198C35.1327 9.94066 34.6969 9.92737 34.4181 10.1877L24.1087 19.8489C24.1087 19.8489 24.1025 19.852 24.1001 19.8544L20.9414 22.8176C20.4135 23.3148 19.5865 23.314 19.0571 22.8176L15.8983 19.8552C15.8983 19.8552 15.8937 19.8528 15.8913 19.8513L5.58188 10.1869C5.3031 9.9258 4.86736 9.93987 4.60654 10.219C4.3465 10.4973 4.36055 10.9344 4.63855 11.1947L14.417 20.3587L4.63855 29.5203C4.36055 29.7806 4.3465 30.2177 4.60654 30.496C4.86814 30.7751 5.30388 30.7892 5.58188 30.5281L15.4267 21.3039L18.1145 23.8222C18.4573 24.1443 18.865 24.3507 19.2929 24.4641C19.3601 24.4821 19.4257 24.5087 19.4936 24.5212C19.5529 24.5321 19.6131 24.5306 19.6724 24.5376C19.7818 24.5509 19.8903 24.5681 20.0004 24.5681C20.098 24.5681 20.1948 24.5517 20.2917 24.5415C20.3635 24.5337 20.4354 24.5345 20.5064 24.522C20.5509 24.5134 20.5931 24.4954 20.6376 24.4852C21.0913 24.3781 21.5247 24.1631 21.8855 23.8238L24.5733 21.3047L34.4181 30.5281C34.5517 30.6532 34.7204 30.7141 34.8898 30.7141C35.0733 30.7141 35.2576 30.6406 35.3935 30.4952C35.6535 30.2169 35.6395 29.7798 35.3615 29.5195L25.5831 20.3579L35.3615 11.1939C35.6395 10.9336 35.6535 10.4965 35.3935 10.2182V10.2198Z" fill="#5D4F3A"/>
</svg>
