<svg width="14" height="12" viewBox="0 0 14 12" fill="none" xmlns="http://www.w3.org/2000/svg">
<path d="M0.75 4.77295C0.335786 4.77295 0 5.10874 0 5.52295C0 5.93716 0.335786 6.27295 0.75 6.27295V5.52295V4.77295ZM13.2803 6.05328C13.5732 5.76039 13.5732 5.28551 13.2803 4.99262L8.50736 0.219648C8.21447 -0.073245 7.73959 -0.073245 7.4467 0.219648C7.15381 0.512542 7.15381 0.987415 7.4467 1.28031L11.6893 5.52295L7.4467 9.76559C7.15381 10.0585 7.15381 10.5334 7.4467 10.8263C7.73959 11.1191 8.21447 11.1191 8.50736 10.8263L13.2803 6.05328ZM0.75 5.52295V6.27295H12.75V5.52295V4.77295H0.75V5.52295Z" fill="#5D4F3A"/>
</svg>
