<svg width="101" height="60" viewBox="0 0 101 60" fill="none" xmlns="http://www.w3.org/2000/svg">
<g clip-path="url(#clip0_22029_1035)">
<path d="M37.738 26.8193C39.0278 27.3267 44.0238 29.3014 44.6298 29.5434V36.5214L50.6048 38.8786V27.6623L58.9574 24.3606V28.1931L68.2967 31.885V19.8959L59.5712 16.4381L50.6126 19.9818V14.9785L69.2835 7.60245L50.0299 0L31.7319 7.23559V31.4245L37.738 33.7973V26.8193ZM67.0691 30.1444C65.7793 29.637 60.7833 27.6623 60.1773 27.4203V23.8845L67.0691 21.1604V30.1444ZM50.6126 21.0745C54.2334 19.6462 59.5168 17.5543 59.5635 17.5387C59.781 17.6246 65.3675 19.8335 66.0823 20.1145C65.3364 20.4111 53.1378 25.227 50.6048 26.2339V21.0745H50.6126ZM50.0299 1.25667C50.4494 1.42058 63.8058 6.70483 66.0901 7.60245C63.8136 8.50787 50.4494 13.7843 50.0299 13.9482C49.6025 13.7765 36.254 8.50006 33.9696 7.60245C36.254 6.69702 49.6103 1.42058 50.0299 1.25667ZM36.5181 32.0567C35.477 31.643 33.4724 30.8547 32.9596 30.6439V8.46884C34.4591 9.06205 48.7012 14.6897 49.385 14.9551V37.138C48.3516 36.7321 46.3703 35.9438 45.8575 35.7409V28.7628L36.5181 25.0709V32.0489V32.0567Z" fill="#936621"/>
<path d="M37.1243 20.7154L38.8026 21.3789V18.2802V18.2723L37.1243 17.6089V20.7154Z" fill="#936621"/>
<path d="M43.5654 23.2599L45.2437 23.9233V20.8246L43.5654 20.1533V23.2599Z" fill="#936621"/>
<path d="M4.95715 54.3488C4.43657 53.9273 3.95484 53.4434 3.54304 52.9126C4.00923 52.296 4.38995 51.6247 4.67744 50.9066V49.7124H3.23225V47.5503H1.89584V49.7124H0.264174V50.9066H3.29441C2.5485 52.4365 1.41411 53.74 0 54.6766L0.528348 56.0972C1.02562 55.7694 1.49181 55.3869 1.90361 54.9576V59.9921H3.24002V54.2785H3.26333C3.59743 54.8171 3.97038 55.3401 4.38995 55.824L4.93384 54.903H4.95715V59.9999H6.20032V59.4613H11.0332V59.9999H12.2763V53.6151H4.95715V54.3566V54.3488ZM9.18394 54.6454H11.0332V56.0269H9.18394V54.6454ZM9.18394 56.9948H11.0332V58.4076H9.18394V56.9948ZM6.20809 54.6376H8.05731V56.0191H6.20809V54.6376ZM6.20032 56.9948H8.04954V58.4076H6.20032V56.9948Z" fill="#936621"/>
<path d="M12.6492 47.9331H4.61523V49.0337H12.6492V47.9331Z" fill="#936621"/>
<path d="M5.44653 49.7437V52.9204H11.7789V49.7437H5.44653ZM10.5358 51.9214H6.68971V50.7427H10.5358V51.9214Z" fill="#936621"/>
<path d="M15.1668 52.7486H23.6282V48.3542H19.1761C19.3081 48.081 19.4169 47.7922 19.5102 47.5034H17.995C17.9251 47.8 17.8319 48.081 17.6998 48.3542H13.8304V56.2142H16.2468V57.9548H14.2267V56.6357H12.9136V59.6876H14.2267V59.0632H20.8621V56.6279H19.5645V57.947H17.5289V56.2064H23.263C23.263 56.8387 23.2008 57.4787 23.092 58.1031C23.0143 58.6183 22.7346 58.6651 22.3539 58.6651H21.033L21.2739 59.9686H22.8745C23.5272 60.0155 24.1177 59.5627 24.2498 58.9227C24.5916 57.9548 24.6538 56.2142 24.7004 55.1683H15.1824V54.4268H25.0967V53.4043H15.1824V52.7486H15.1668ZM15.1668 49.3845H22.2529V50.1104H15.1668V49.3845ZM15.1668 50.9924H22.2529V51.773H15.1668V50.9924Z" fill="#936621"/>
<path d="M27.8004 54.0209C27.3964 55.5508 26.6738 56.9714 25.687 58.2046L26.9535 59.2271C29.028 56.4796 29.9138 52.8657 30.178 48.8069L28.6862 48.5962C28.5929 50.4383 28.2899 52.2569 27.8004 54.0287V54.0209Z" fill="#936621"/>
<path d="M33.2627 48.7367C33.4103 51.6715 34.2417 56.183 36.526 59.1881L37.8391 58.1656C36.9378 56.9869 35.2129 54.5985 34.8089 48.5649L33.2627 48.7367Z" fill="#936621"/>
<path d="M44.42 47.9331H42.936V49.9547H38.6626V54.4974H40.0922V51.3128H47.2327V51.4065C47.2327 56.2224 44.2724 57.6586 39.9524 57.9942L40.403 59.4461C44.4977 59.0089 48.6235 57.6274 48.7711 51.1723L48.7945 49.9625H44.42V47.9409V47.9331Z" fill="#936621"/>
<path d="M59.2138 50.0091L60.3482 49.7437C60.1928 49.0178 59.9675 48.3153 59.6722 47.6284L58.5845 47.8704C58.8564 48.5651 59.0662 49.2832 59.2061 50.0091H59.2138Z" fill="#936621"/>
<path d="M51.2109 57.6819L51.5838 59.2742C57.5744 58.5951 59.8043 56.1286 61.5992 51.0941L60.1695 50.4619C58.4446 55.7618 56.1914 57.276 51.2031 57.6819H51.2109Z" fill="#936621"/>
<path d="M54.7851 52.905C53.5886 52.3196 52.3454 51.8434 51.0711 51.4844L50.4651 52.8659C51.7549 53.264 52.9981 53.7792 54.1791 54.4114L54.7851 52.9128V52.905Z" fill="#936621"/>
<path d="M60.457 47.6985C60.7522 48.3542 60.9776 49.0332 61.1407 49.7279L62.2363 49.4235C62.0498 48.7522 61.8089 48.0966 61.5215 47.4565L60.4492 47.6985H60.457Z" fill="#936621"/>
<path d="M55.1968 51.3206L55.8727 49.8688C54.6684 49.3069 53.4253 48.8385 52.1432 48.4717L51.5061 49.8688C52.7804 50.2357 54.0158 50.7196 55.1968 51.3206Z" fill="#936621"/>
<path d="M62.8811 57.5489L63.3706 59.2193C69.1514 58.4856 72.034 56.1127 74.023 50.3055L72.5312 49.6265C70.5888 55.621 67.4808 57.2133 62.8811 57.5411V57.5489Z" fill="#936621"/>
<path d="M67.551 50.6336C66.2923 49.814 64.9015 49.2052 63.4563 48.8149L62.7415 50.1184C64.1633 50.5633 65.5075 51.219 66.7351 52.0698L67.551 50.6336Z" fill="#936621"/>
<path d="M84.7921 49.3688C84.6134 48.6976 84.3647 48.0419 84.0695 47.4175L83.0283 47.6594C83.308 48.2839 83.5334 48.9395 83.6888 49.6108L84.7998 49.3688H84.7921Z" fill="#936621"/>
<path d="M84.9475 47.6365C85.2272 48.2453 85.4603 48.8776 85.6313 49.5176L86.7423 49.2678C86.5403 48.6278 86.2917 48.0034 86.0042 47.3945L84.9475 47.6365Z" fill="#936621"/>
<path d="M80.5187 48.2371L78.9103 47.9717C78.3121 50.1416 76.8436 51.968 74.8545 53.0062L75.818 54.1145C77.0456 53.4276 78.1101 52.4754 78.9259 51.328H83.6422C82.3835 55.8161 79.8505 57.5177 75.5538 58.1265L76.2064 59.508C78.4442 59.1178 84.3492 58.0875 85.4759 49.9308H79.7961C80.0914 49.3845 80.3322 48.8147 80.5342 48.2293L80.5187 48.2371Z" fill="#936621"/>
<path d="M90.9848 49.9699C91.1635 49.7123 91.3111 49.4313 91.4199 49.1347H92.1425V50.0636H90.5108V50.7192H91.956C91.5287 51.4529 90.9304 52.0773 90.2156 52.5379L90.6429 53.1389C91.2412 52.7018 91.7462 52.1398 92.1192 51.4919H92.1347V53.6853H92.7874V51.4685H92.8029C93.106 52.1242 93.5411 52.7096 94.0849 53.1779L94.4268 52.452C93.8285 51.9915 93.339 51.3905 93.0049 50.7114H94.318V50.0557H92.7952V49.1269H94.186V48.4791H92.7952V47.4722H92.1425V48.4791H91.6375C91.7229 48.1825 91.7773 47.9795 91.8162 47.7922L91.1324 47.6907C91.0236 48.2683 90.8216 48.8225 90.5341 49.3299H90.5186C90.4409 49.4391 90.4098 49.486 90.3321 49.5796L90.9926 49.9699H90.9848Z" fill="#936621"/>
<path d="M88.2886 52.2881C88.6304 51.7808 88.8869 51.211 89.0578 50.6178H89.0733V53.6853H89.6949V50.8519H89.7105C89.8348 51.1173 89.9902 51.3671 90.1844 51.5934L90.5962 51.0002C90.2543 50.6646 89.9435 50.2899 89.6949 49.8762V49.3377H90.503V48.682H89.6949V47.4878H89.0656V48.682H88.1176V49.3377H88.9723C88.7781 50.1026 88.444 50.8207 87.9778 51.4607L88.2808 52.2959L88.2886 52.2881Z" fill="#936621"/>
<path d="M95.0638 52.7568C94.9628 52.7568 94.8929 52.7724 94.7297 52.788L94.8463 53.4671C95.6388 53.3656 97.1617 53.1314 98.2339 52.9051V52.2807C97.9775 52.3353 97.5735 52.4134 96.8121 52.5226V50.6806H98.0319V50.0249H94.8463V50.6806H96.1361V52.6085C95.9651 52.6319 95.227 52.7256 95.0638 52.7568Z" fill="#936621"/>
<path d="M98.9022 52.6315C99.0654 52.9359 99.4927 53.7008 100.138 53.7008C100.736 53.7008 100.915 52.7252 101.008 52.21L100.394 51.8666C100.371 52.1007 100.254 52.8657 100.021 52.8657C99.788 52.8657 99.5005 52.2724 99.4228 52.0851C99.112 51.1563 98.9333 50.1884 98.91 49.2049H100.891V48.5415H100.192L100.565 48.0653C100.231 47.8234 99.8734 47.6126 99.5005 47.4331L99.1042 47.9483C99.4461 48.1122 99.7802 48.3073 100.091 48.5337V48.5493H98.8944C98.8944 48.0731 98.8944 47.8312 98.8944 47.4877H98.1874C98.1952 47.597 98.2107 48.198 98.2262 48.5493H94.7454V49.2127H98.2573C98.3039 50.3055 98.3428 51.5231 98.9178 52.6471L98.9022 52.6315Z" fill="#936621"/>
<path d="M88.2341 57.5414H89.9357C89.7648 58.0722 89.555 58.5873 89.2986 59.0791C88.98 59.0869 88.4828 59.0947 88.3429 59.0947L88.4361 59.7815C89.4385 59.7815 89.6638 59.7581 93.1291 59.5318C93.3001 59.805 93.3156 59.8284 93.4011 59.9845L94.0382 59.5864H94.046C93.6186 58.8839 93.1058 58.2439 92.5231 57.6741L91.9637 58.0175C92.2434 58.3141 92.5075 58.6342 92.7406 58.962C91.7228 59.0166 91.4042 59.0322 90.0445 59.0635C90.2465 58.6888 90.4252 58.2751 90.7516 57.5414H94.1936V56.8936H88.2341V57.5414Z" fill="#936621"/>
<path d="M91.6218 53.6621H90.8681C90.13 54.6066 89.1354 55.3169 88.0088 55.7071L88.3973 56.3394C88.778 56.1754 89.1432 55.9881 89.4851 55.7696V56.1286H92.9893V55.754C93.3311 55.9725 93.6885 56.1676 94.0537 56.3472L94.4811 55.6837C93.1913 55.1764 92.1113 54.4348 91.6295 53.6621H91.6218ZM92.6085 55.4964H89.8735V55.4808C90.3786 55.1373 90.8448 54.708 91.2333 54.2319C91.6373 54.708 92.1035 55.1217 92.6085 55.4808V55.4964Z" fill="#936621"/>
<path d="M97.4335 57.3151C97.0917 57.0809 96.7809 56.8077 96.5089 56.4955C96.7731 56.152 96.9984 55.7696 97.1771 55.3715V54.7237H96.4001V53.6855H95.7242V54.7237H94.7219V55.3715H96.4234C96.0427 56.1911 95.4134 56.8701 94.6208 57.3072L94.9161 57.9863C95.2036 57.8068 95.4755 57.6039 95.7164 57.3697V59.9377H96.4001V57.2448C96.6177 57.4946 96.8586 57.7365 97.115 57.9395L97.4335 57.3072V57.3151Z" fill="#936621"/>
<path d="M99.345 56.2769H100.759V55.5666H99.345V53.6855H98.6535V55.5666H97.2704V56.2769H98.6535V59.0088H96.9907V59.7191H100.914V59.0088H99.345V56.2769Z" fill="#936621"/>
</g>
<defs>
<clipPath id="clip0_22029_1035">
<rect width="101" height="60" fill="white"/>
</clipPath>
</defs>
</svg>
